<mxfile host="app.diagrams.net" modified="2023-06-09T15:24:08.818Z" agent="5.0 (Windows)" etag="FcNPP9jqQivbe1rEmTlD" version="21.0.2" type="github">
  <diagram name="第 1 页" id="EnIA6HLd-FOOzfXGk_vT">
    <mxGraphModel dx="1434" dy="746" grid="1" gridSize="10" guides="1" tooltips="1" connect="1" arrows="1" fold="1" page="1" pageScale="1" pageWidth="827" pageHeight="1169" math="0" shadow="0">
      <root>
        <mxCell id="0" />
        <mxCell id="1" parent="0" />
        <mxCell id="iiaPbigvtlAAhFLvftk5-1" value="openeuler btf repo" style="rounded=1;whiteSpace=wrap;html=1;sketch=1;hachureGap=4;jiggle=2;curveFitting=1;fontFamily=Architects Daughter;fontSource=https%3A%2F%2Ffonts.googleapis.com%2Fcss%3Ffamily%3DArchitects%2BDaughter;fontSize=20;" parent="1" vertex="1">
          <mxGeometry x="270" y="430" width="190" height="140" as="geometry" />
        </mxCell>
        <mxCell id="iiaPbigvtlAAhFLvftk5-2" value="scripts" style="rounded=1;whiteSpace=wrap;html=1;sketch=1;hachureGap=4;jiggle=2;curveFitting=1;fontFamily=Architects Daughter;fontSource=https%3A%2F%2Ffonts.googleapis.com%2Fcss%3Ffamily%3DArchitects%2BDaughter;fontSize=20;" parent="1" vertex="1">
          <mxGeometry x="380" y="400" width="120" height="60" as="geometry" />
        </mxCell>
        <mxCell id="eZA-BtdOcczapbWW00mo-11" style="edgeStyle=orthogonalEdgeStyle;rounded=0;orthogonalLoop=1;jettySize=auto;html=1;entryX=0;entryY=0.5;entryDx=0;entryDy=0;sketch=1;curveFitting=1;jiggle=2;" edge="1" parent="1" source="iiaPbigvtlAAhFLvftk5-4" target="eZA-BtdOcczapbWW00mo-6">
          <mxGeometry relative="1" as="geometry" />
        </mxCell>
        <mxCell id="iiaPbigvtlAAhFLvftk5-4" value="btf generator" style="rounded=1;whiteSpace=wrap;html=1;sketch=1;hachureGap=4;jiggle=2;curveFitting=1;fontFamily=Architects Daughter;fontSource=https%3A%2F%2Ffonts.googleapis.com%2Fcss%3Ffamily%3DArchitects%2BDaughter;fontSize=20;" parent="1" vertex="1">
          <mxGeometry x="380" y="535" width="160" height="50" as="geometry" />
        </mxCell>
        <mxCell id="iiaPbigvtlAAhFLvftk5-12" style="edgeStyle=orthogonalEdgeStyle;rounded=0;sketch=1;hachureGap=4;jiggle=2;curveFitting=1;orthogonalLoop=1;jettySize=auto;html=1;fontFamily=Architects Daughter;fontSource=https%3A%2F%2Ffonts.googleapis.com%2Fcss%3Ffamily%3DArchitects%2BDaughter;fontSize=16;startArrow=classic;startFill=1;" parent="1" source="iiaPbigvtlAAhFLvftk5-11" target="iiaPbigvtlAAhFLvftk5-2" edge="1">
          <mxGeometry relative="1" as="geometry" />
        </mxCell>
        <mxCell id="eZA-BtdOcczapbWW00mo-2" style="edgeStyle=orthogonalEdgeStyle;rounded=0;orthogonalLoop=1;jettySize=auto;html=1;entryX=0;entryY=0.5;entryDx=0;entryDy=0;sketch=1;curveFitting=1;jiggle=2;" edge="1" parent="1" source="iiaPbigvtlAAhFLvftk5-11" target="eZA-BtdOcczapbWW00mo-1">
          <mxGeometry relative="1" as="geometry" />
        </mxCell>
        <mxCell id="eZA-BtdOcczapbWW00mo-4" style="edgeStyle=orthogonalEdgeStyle;rounded=0;orthogonalLoop=1;jettySize=auto;html=1;sketch=1;curveFitting=1;jiggle=2;" edge="1" parent="1" source="iiaPbigvtlAAhFLvftk5-11" target="eZA-BtdOcczapbWW00mo-3">
          <mxGeometry relative="1" as="geometry" />
        </mxCell>
        <mxCell id="iiaPbigvtlAAhFLvftk5-11" value="jenkins" style="rounded=1;whiteSpace=wrap;html=1;sketch=1;hachureGap=4;jiggle=2;curveFitting=1;fontFamily=Architects Daughter;fontSource=https%3A%2F%2Ffonts.googleapis.com%2Fcss%3Ffamily%3DArchitects%2BDaughter;fontSize=20;" parent="1" vertex="1">
          <mxGeometry x="550" y="400" width="120" height="60" as="geometry" />
        </mxCell>
        <mxCell id="eZA-BtdOcczapbWW00mo-1" value="btfhub" style="rounded=1;whiteSpace=wrap;html=1;sketch=1;hachureGap=4;jiggle=2;curveFitting=1;fontFamily=Architects Daughter;fontSource=https%3A%2F%2Ffonts.googleapis.com%2Fcss%3Ffamily%3DArchitects%2BDaughter;fontSize=20;" vertex="1" parent="1">
          <mxGeometry x="733" y="360" width="120" height="60" as="geometry" />
        </mxCell>
        <mxCell id="eZA-BtdOcczapbWW00mo-3" value="xxx" style="rounded=1;whiteSpace=wrap;html=1;sketch=1;hachureGap=4;jiggle=2;curveFitting=1;fontFamily=Architects Daughter;fontSource=https%3A%2F%2Ffonts.googleapis.com%2Fcss%3Ffamily%3DArchitects%2BDaughter;fontSize=20;" vertex="1" parent="1">
          <mxGeometry x="733" y="450" width="120" height="60" as="geometry" />
        </mxCell>
        <mxCell id="eZA-BtdOcczapbWW00mo-13" value="" style="edgeStyle=orthogonalEdgeStyle;rounded=0;orthogonalLoop=1;jettySize=auto;html=1;sketch=1;curveFitting=1;jiggle=2;" edge="1" parent="1" source="eZA-BtdOcczapbWW00mo-6" target="eZA-BtdOcczapbWW00mo-12">
          <mxGeometry relative="1" as="geometry" />
        </mxCell>
        <mxCell id="eZA-BtdOcczapbWW00mo-6" value="service" style="rounded=1;whiteSpace=wrap;html=1;sketch=1;hachureGap=4;jiggle=2;curveFitting=1;fontFamily=Architects Daughter;fontSource=https%3A%2F%2Ffonts.googleapis.com%2Fcss%3Ffamily%3DArchitects%2BDaughter;fontSize=20;" vertex="1" parent="1">
          <mxGeometry x="660" y="575" width="120" height="60" as="geometry" />
        </mxCell>
        <mxCell id="eZA-BtdOcczapbWW00mo-8" style="edgeStyle=orthogonalEdgeStyle;rounded=0;orthogonalLoop=1;jettySize=auto;html=1;entryX=0.5;entryY=1;entryDx=0;entryDy=0;sketch=1;curveFitting=1;jiggle=2;" edge="1" parent="1" source="eZA-BtdOcczapbWW00mo-7" target="eZA-BtdOcczapbWW00mo-6">
          <mxGeometry relative="1" as="geometry" />
        </mxCell>
        <mxCell id="eZA-BtdOcczapbWW00mo-7" value="Actor" style="shape=umlActor;verticalLabelPosition=bottom;verticalAlign=top;html=1;outlineConnect=0;sketch=1;curveFitting=1;jiggle=2;" vertex="1" parent="1">
          <mxGeometry x="705" y="740" width="30" height="60" as="geometry" />
        </mxCell>
        <mxCell id="eZA-BtdOcczapbWW00mo-10" value="eBPF prog" style="text;html=1;align=center;verticalAlign=middle;resizable=0;points=[];autosize=1;strokeColor=none;fillColor=none;sketch=1;curveFitting=1;jiggle=2;" vertex="1" parent="1">
          <mxGeometry x="720" y="690" width="80" height="30" as="geometry" />
        </mxCell>
        <mxCell id="eZA-BtdOcczapbWW00mo-12" value="eBPF+btf(with all openEuler BTF)" style="ellipse;whiteSpace=wrap;html=1;fontSize=20;fontFamily=Architects Daughter;rounded=1;sketch=1;hachureGap=4;jiggle=2;curveFitting=1;fontSource=https%3A%2F%2Ffonts.googleapis.com%2Fcss%3Ffamily%3DArchitects%2BDaughter;" vertex="1" parent="1">
          <mxGeometry x="890" y="552.5" width="160" height="105" as="geometry" />
        </mxCell>
        <mxCell id="eZA-BtdOcczapbWW00mo-16" style="edgeStyle=orthogonalEdgeStyle;rounded=0;orthogonalLoop=1;jettySize=auto;html=1;entryX=0;entryY=0.5;entryDx=0;entryDy=0;" edge="1" parent="1" source="eZA-BtdOcczapbWW00mo-15" target="eZA-BtdOcczapbWW00mo-6">
          <mxGeometry relative="1" as="geometry" />
        </mxCell>
        <mxCell id="eZA-BtdOcczapbWW00mo-15" value="eBPF Hub" style="rounded=1;whiteSpace=wrap;html=1;sketch=1;hachureGap=4;jiggle=2;curveFitting=1;fontFamily=Architects Daughter;fontSource=https%3A%2F%2Ffonts.googleapis.com%2Fcss%3Ffamily%3DArchitects%2BDaughter;fontSize=20;" vertex="1" parent="1">
          <mxGeometry x="270" y="670" width="190" height="140" as="geometry" />
        </mxCell>
      </root>
    </mxGraphModel>
  </diagram>
</mxfile>
